# xmcd CD database file
#
# Track frame offsets:
#	150
#	15685
#	29671
#	40935
#	55516
#	69931
#	83261
#	97880
#	110252
#	123985
#	139052
#	153927
#	168060
#	179505
#	194794
#	208503
#	220367
#	235211
#	251945
#	266288
#	278701
#	293617
#	305802
#	317282
#
# Disc length: 4431 seconds
#
# Revision: 0
# Processed by: cddbd v1.5.2PL0 Copyright (c) Steve Scherf et al.
# Submitted via: CDex 1.79
#
DISCID=4a114d18
DTITLE=Patsy Riggir - Beautiful Lady The Very Best Of
DYEAR=1900
DGENRE=Country
TTITLE0=Beautiful Lady
TTITLE1=My Little Corner Of The World
TTITLE2=Sailor
TTITLE3=Jones On The Jukebox
TTITLE4=I Love You Because
TTITLE5=Thank God For The Radio
TTITLE6=You Remind Me Of A Lovesong
TTITLE7=Just One Time
TTITLE8=Lay Down Beside Me
TTITLE9=I Wanna Wake You Up
TTITLE10=The Wayward WInd
TTITLE11=Redsails In The Sunset
TTITLE12=Back In Baby's Arms
TTITLE13=Beautiful Isle Of Somewhere
TTITLE14=I Want To Be A Cowboy's Sweetheart
TTITLE15=Dark Moon
TTITLE16=You'll Never Take The Country Out Of Me
TTITLE17=Scarlet Ribbons
TTITLE18=Endlessly
TTITLE19=True Love
TTITLE20=Only Love Can Save Me Now
TTITLE21=Everybody's Reaching Out For Someone
TTITLE22=Never Ending Song Of Love
TTITLE23=The Old Rugged Cross
EXTD=
EXTT0=
EXTT1=
EXTT2=
EXTT3=
EXTT4=
EXTT5=
EXTT6=
EXTT7=
EXTT8=
EXTT9=
EXTT10=
EXTT11=
EXTT12=
EXTT13=
EXTT14=
EXTT15=
EXTT16=
EXTT17=
EXTT18=
EXTT19=
EXTT20=
EXTT21=
EXTT22=
EXTT23=
PLAYORDER=
